HIERARCHY
ROOT Hips
{
    OFFSET   0.000000   0.000000   0.000000
    CHANNELS 6 Xposition Yposition Zposition Zrotation Xrotation Yrotation
    JOINT Chest
    {
        OFFSET   0.000000   8.007230   0.000000
        CHANNELS 3 Zrotation Xrotation Yrotation
        JOINT Chest2
        {
            OFFSET   0.000000  22.077100   0.000000
            CHANNELS 3 Zrotation Xrotation Yrotation
            JOINT Neck
            {
                OFFSET   0.000000  23.254700   0.000000
                CHANNELS 3 Zrotation Xrotation Yrotation
                JOINT Head
                {
                    OFFSET   0.000010  14.370000   1.956610
                    CHANNELS 3 Zrotation Xrotation Yrotation
                    End Site
                    {
                        OFFSET   0.000000  19.566000   0.000000
                    }
                }
            }
            JOINT LeftCollar
            {
                OFFSET   3.911900  19.017000  -0.467063
                CHANNELS 3 Zrotation Xrotation Yrotation
                JOINT LeftShoulder
                {
                    OFFSET  10.383700   0.000000   0.000000
                    CHANNELS 3 Zrotation Xrotation Yrotation
                    JOINT LeftElbow
                    {
                        OFFSET  26.662100   0.001671   0.000522
                        CHANNELS 3 Zrotation Xrotation Yrotation
                        JOINT LeftWrist
                        {
                            OFFSET  28.869000   0.000037  -0.000114
                            CHANNELS 3 Zrotation Xrotation Yrotation
                            JOINT LeftFinger0
                            {
                                OFFSET   2.044650  -2.323450   3.252850
                                CHANNELS 3 Zrotation Xrotation Yrotation
                                JOINT LeftFinger01
                                {
                                    OFFSET   3.088140   0.000000   0.000000
                                    CHANNELS 3 Zrotation Xrotation Yrotation
                                    JOINT LeftFinger02
                                    {
                                        OFFSET   2.639460   0.000000   0.000000
                                        CHANNELS 3 Zrotation Xrotation Yrotation
                                        End Site
                                        {
                                            OFFSET   2.582190   0.000000   0.000000
                                        }
                                    }
                                }
                            }
                            JOINT LeftFinger1
                            {
                                OFFSET   8.364480   0.000000   3.252850
                                CHANNELS 3 Zrotation Xrotation Yrotation
                                JOINT LeftFinger11
                                {
                                    OFFSET   4.646930   0.000000   0.000000
                                    CHANNELS 3 Zrotation Xrotation Yrotation
                                    JOINT LeftFinger12
                                    {
                                        OFFSET   2.323470   0.000000   0.000000
                                        CHANNELS 3 Zrotation Xrotation Yrotation
                                        End Site
                                        {
                                            OFFSET   2.273050   0.000000   0.000000
                                        }
                                    }
                                }
                            }
                            JOINT LeftFinger2
                            {
                                OFFSET   8.364490   0.000016   1.078090
                                CHANNELS 3 Zrotation Xrotation Yrotation
                                JOINT LeftFinger21
                                {
                                    OFFSET   5.111620   0.000000   0.000000
                                    CHANNELS 3 Zrotation Xrotation Yrotation
                                    JOINT LeftFinger22
                                    {
                                        OFFSET   2.788150   0.000013   0.000000
                                        CHANNELS 3 Zrotation Xrotation Yrotation
                                        End Site
                                        {
                                            OFFSET   2.727660   0.000000   0.000000
                                        }
                                    }
                                }
                            }
                            JOINT LeftFinger3
                            {
                                OFFSET   7.899780   0.000016  -1.078090
                                CHANNELS 3 Zrotation Xrotation Yrotation
                                JOINT LeftFinger31
                                {
                                    OFFSET   4.646930   0.000000   0.000000
                                    CHANNELS 3 Zrotation Xrotation Yrotation
                                    JOINT LeftFinger32
                                    {
                                        OFFSET   2.323470   0.000000   0.000000
                                        CHANNELS 3 Zrotation Xrotation Yrotation
                                        End Site
                                        {
                                            OFFSET   2.273050   0.000000   0.000000
                                        }
                                    }
                                }
                            }
                            JOINT LeftFinger4
                            {
                                OFFSET   7.435080   0.000000  -3.252850
                                CHANNELS 3 Zrotation Xrotation Yrotation
                                JOINT LeftFinger41
                                {
                                    OFFSET   3.717550   0.000000   0.000000
                                    CHANNELS 3 Zrotation Xrotation Yrotation
                                    JOINT LeftFinger42
                                    {
                                        OFFSET   1.858760   0.000000   0.000000
                                        CHANNELS 3 Zrotation Xrotation Yrotation
                                        End Site
                                        {
                                            OFFSET   1.818440   0.000000   0.000000
                                        }
                                    }
                                }
                            }
                        }
                    }
                }
            }
            JOINT RightCollar
            {
                OFFSET  -3.911900  19.017000  -0.467064
                CHANNELS 3 Zrotation Xrotation Yrotation
                JOINT RightShoulder
                {
                    OFFSET -10.383700   0.000000   0.000000
                    CHANNELS 3 Zrotation Xrotation Yrotation
                    JOINT RightElbow
                    {
                        OFFSET -26.662100   0.001633   0.000260
                        CHANNELS 3 Zrotation Xrotation Yrotation
                        JOINT RightWrist
                        {
                            OFFSET -28.869000  -0.000045  -0.000080
                            CHANNELS 3 Zrotation Xrotation Yrotation
                            JOINT RightFinger0
                            {
                                OFFSET  -2.044660  -2.323490   3.252850
                                CHANNELS 3 Zrotation Xrotation Yrotation
                                JOINT RightFinger01
                                {
                                    OFFSET  -3.088140   0.000000   0.000000
                                    CHANNELS 3 Zrotation Xrotation Yrotation
                                    JOINT RightFinger02
                                    {
                                        OFFSET  -2.639450   0.000000   0.000000
                                        CHANNELS 3 Zrotation Xrotation Yrotation
                                        End Site
                                        {
                                            OFFSET  -2.582190   0.000000   0.000000
                                        }
                                    }
                                }
                            }
                            JOINT RightFinger1
                            {
                                OFFSET  -8.364480   0.000000   3.252850
                                CHANNELS 3 Zrotation Xrotation Yrotation
                                JOINT RightFinger11
                                {
                                    OFFSET  -4.646920   0.000000   0.000000
                                    CHANNELS 3 Zrotation Xrotation Yrotation
                                    JOINT RightFinger12
                                    {
                                        OFFSET  -2.323470   0.000000   0.000000
                                        CHANNELS 3 Zrotation Xrotation Yrotation
                                        End Site
                                        {
                                            OFFSET  -2.273050   0.000000   0.000000
                                        }
                                    }
                                }
                            }
                            JOINT RightFinger2
                            {
                                OFFSET  -8.364480   0.000000   1.078090
                                CHANNELS 3 Zrotation Xrotation Yrotation
                                JOINT RightFinger21
                                {
                                    OFFSET  -5.111610   0.000000   0.000000
                                    CHANNELS 3 Zrotation Xrotation Yrotation
                                    JOINT RightFinger22
                                    {
                                        OFFSET  -2.788160   0.000000   0.000000
                                        CHANNELS 3 Zrotation Xrotation Yrotation
                                        End Site
                                        {
                                            OFFSET  -2.727660   0.000000   0.000000
                                        }
                                    }
                                }
                            }
                            JOINT RightFinger3
                            {
                                OFFSET  -7.899780   0.000000  -1.078090
                                CHANNELS 3 Zrotation Xrotation Yrotation
                                JOINT RightFinger31
                                {
                                    OFFSET  -4.646930   0.000000   0.000000
                                    CHANNELS 3 Zrotation Xrotation Yrotation
                                    JOINT RightFinger32
                                    {
                                        OFFSET  -2.323470   0.000000   0.000000
                                        CHANNELS 3 Zrotation Xrotation Yrotation
                                        End Site
                                        {
                                            OFFSET  -2.273050   0.000000   0.000000
                                        }
                                    }
                                }
                            }
                            JOINT RightFinger4
                            {
                                OFFSET  -7.435090   0.000000  -3.252850
                                CHANNELS 3 Zrotation Xrotation Yrotation
                                JOINT RightFinger41
                                {
                                    OFFSET  -3.717550   0.000000   0.000000
                                    CHANNELS 3 Zrotation Xrotation Yrotation
                                    JOINT RightFinger42
                                    {
                                        OFFSET  -1.858760   0.000000   0.000000
                                        CHANNELS 3 Zrotation Xrotation Yrotation
                                        End Site
                                        {
                                            OFFSET  -1.818440   0.000000   0.000000
                                        }
                                    }
                                }
                            }
                        }
                    }
                }
            }
        }
    }
    JOINT LeftHip
    {
        OFFSET   9.782990   0.000000   0.000000
        CHANNELS 3 Zrotation Xrotation Yrotation
        JOINT LeftKnee
        {
            OFFSET  -0.000063 -41.789100   0.001657
            CHANNELS 3 Zrotation Xrotation Yrotation
            JOINT LeftAnkle
            {
                OFFSET   0.000078 -41.133200  -0.000113
                CHANNELS 3 Zrotation Xrotation Yrotation
                JOINT LeftToe
                {
                    OFFSET   0.000000  -6.358970  14.674500
                    CHANNELS 3 Zrotation Xrotation Yrotation
                    End Site
                    {
                        OFFSET   0.000000   0.000000   3.913200
                    }
                }
            }
        }
    }
    JOINT RightHip
    {
        OFFSET  -9.782990   0.000000   0.000000
        CHANNELS 3 Zrotation Xrotation Yrotation
        JOINT RightKnee
        {
            OFFSET   0.000053 -41.789200   0.000277
            CHANNELS 3 Zrotation Xrotation Yrotation
            JOINT RightAnkle
            {
                OFFSET   0.000030 -41.133200  -0.000150
                CHANNELS 3 Zrotation Xrotation Yrotation
                JOINT RightToe
                {
                    OFFSET   0.000000  -6.358960  14.674500
                    CHANNELS 3 Zrotation Xrotation Yrotation
                    End Site
                    {
                        OFFSET   0.000000   0.000000   3.913200
                    }
                }
            }
        }
    }
}
MOTION
Frames: 6
Frame Time:   0.016667
  1.864340  89.225800   3.812500  -4.807680 -20.796600  -2.475870  -0.636547  13.106700   6.040820  -2.837770  26.068500  12.739000   2.504570  -1.826690   0.078739   4.078610  -3.682820 -14.431500  -7.031660  -9.997050  -2.200150 -67.436000  26.905500 -11.841900   0.592985  -5.647830 -16.868600  12.028900  -4.479810   2.253050  36.560500  25.087500 -54.025300 -30.907300   0.000000  -0.000000 -10.453600   0.002986  -0.000000 -27.498200   4.591850  -8.736350 -22.787900   0.001873   0.001564 -15.951500  -0.002698   0.003121 -28.230400  -1.657270   3.081300 -34.026800  -0.008013   0.009661 -22.661900  -0.007343   0.001662 -27.542900  -1.621240   3.101190 -29.643200  -0.006924   0.007234 -19.742300  -0.004579   0.001141 -27.186400  -1.596330   3.119420 -40.846700  -0.008227   0.008753 -27.203900  -0.007347   0.000000   8.034260  -2.964990  12.051300  43.062300 -13.417700  56.683400 -32.159800 -20.281200  24.430700  15.202800 -39.106700  14.510900 -40.280700  47.151500  83.780500  46.403600   0.002612  -0.002667  20.913200   0.000976  -0.001156   5.875820   1.971570  18.524600   5.070740  -0.000375   0.005267   3.549530  -0.000094   0.001262  89.000000   0.002701   0.000000 110.000000  -0.000485   0.005313  80.000000  -0.000421   0.000289  88.996200  -4.998810  -0.087819  94.801800   0.002723   0.003585  71.101400   0.003451   0.000450  88.984500 -10.006100  -0.176593 110.000000  -0.006610  -0.005728  79.999900  -0.000533  -0.003260   2.685380  24.620000   9.713620   1.075620   0.242318   6.308500  -4.536570  -3.973520  -4.517020   0.000000   0.000000   0.000000   4.182650  18.635300   0.599456  -2.936010  12.056400 -10.860400   3.274530  -9.250080   1.961490   0.000000   0.000000   0.000000
  2.053940  89.215800   3.824140  -4.385090 -20.613600  -1.372100  -0.681528  13.075100   5.993840  -2.922550  25.997300  12.663900   2.378420  -1.937050   0.080646   3.919530  -3.907430 -14.275800  -6.960540 -10.231400  -2.032830 -68.130600  25.198100 -10.993600   0.722618  -4.737410 -16.962400  12.560900  -4.903570   2.305310  36.277900  25.001400 -54.447500 -31.237800   0.000000   0.000000 -10.618900   0.002958  -0.000000 -27.804000   4.465410  -8.392760 -23.018200   0.002079   0.001563 -16.112800  -0.002751   0.003403 -28.348300  -1.652320   3.061090 -35.068500  -0.005048   0.007821 -23.355600  -0.005252   0.001662 -27.719800  -1.618830   3.079810 -30.586900  -0.005774   0.006191 -20.370800  -0.004579   0.001142 -27.783300  -1.623810   3.081360 -41.745000  -0.005771   0.008753 -27.802200  -0.005694  -0.000000   8.102270  -2.765330  11.964000  49.683600 -14.463400  57.073100 -33.120400 -17.208300  28.507100  15.848400 -38.190100  14.989400 -41.013800  48.150000  84.794400  46.486400   0.002794  -0.002864  21.010900   0.000982  -0.001172   5.890220   1.976010  18.487800   5.082320  -0.000422   0.005377   3.557640  -0.000096   0.001285  89.000000   0.002833   0.000000 110.000000  -0.000646   0.005027  80.000000  -0.000574   0.000395  88.996200  -4.998670  -0.087933  95.060800   0.002777  -0.001274  71.295600  -0.000872   0.000244  88.984500 -10.005700  -0.176687 110.000000  -0.006737  -0.005699  79.999900  -0.000662  -0.002917   2.638170  24.346300   9.804790   1.087390   0.159687   5.656380  -4.551940  -3.880050  -4.938730   0.000000   0.000000   0.000000   4.021140  18.485300   0.596499  -2.730170  12.189600 -11.505500   3.252270  -9.373680   1.604910  -0.000000   0.000000   0.000000
  2.237990  89.190000   3.872130  -4.084840 -20.530500  -0.363607  -0.637833  13.055300   5.892800  -2.808770  25.966200  12.448900   2.238150  -1.934780   0.080544   3.706620  -3.905750 -14.079500  -6.909420 -10.390700  -1.943420 -68.733000  23.761200 -10.148300   0.652926  -4.533530 -17.055600  12.853700  -5.628760   2.540400  36.066900  24.921500 -54.616600 -31.679100   0.000000   0.000000 -10.839600   0.002938  -0.000000 -28.113800   4.328560  -8.023450 -23.250600   0.002287   0.001563 -16.275500  -0.002803   0.003684 -28.400600  -1.856610   3.432140 -35.638900  -0.005049   0.006529 -23.735500  -0.005252   0.001661 -27.813900  -1.821770   3.451390 -31.184800  -0.005773   0.005003 -20.769000  -0.004579   0.001142 -28.142900  -1.853210   3.443750 -42.299600  -0.005772   0.008753 -28.171500  -0.005692   0.000000   8.026640  -2.850200  11.790300  52.360500 -14.480700  56.929000 -33.799200 -15.650600  30.186200  15.719200 -37.443700  15.036700 -41.129300  48.277900  84.950600  46.507000   0.003157  -0.003264  21.033400   0.000924  -0.001186   5.680010   1.894360  18.360300   4.897090  -0.000448   0.005486   3.427960  -0.000085   0.001323  89.000000   0.002965   0.000000 110.000000  -0.000835   0.004723  80.000000  -0.000723   0.000505  88.996100  -4.998360  -0.088177  95.012800   0.002852  -0.001418  71.259600  -0.000998  -0.000135  88.984500 -10.005300  -0.176888 110.000000  -0.006848  -0.005673  79.999900  -0.000793  -0.002551   2.764520  24.193500   9.787870   1.008400   0.164961   5.133600  -4.595950  -3.858420  -5.377110   0.000000   0.000000   0.000000   3.980190  18.499800   0.686931  -2.539280  12.269100 -12.166800   3.234490  -9.475910   1.216670   0.000000   0.000000   0.000000
  2.421110  89.156600   3.936060  -3.842840 -20.498600   0.557458  -0.591684  13.043100   5.777380  -2.677610  25.951500  12.187900   2.151180  -1.918910   0.080368   3.545550  -3.873960 -13.865300  -6.854360 -10.502400  -1.873970 -69.161400  22.984800  -9.387490   0.550711  -4.503440 -17.109700  12.976500  -6.356880   2.717930  35.736200  24.824300 -54.816900 -31.997700   0.000000   0.000000 -10.998900   0.002918   0.000000 -28.379800   4.244230  -7.796770 -23.456400   0.002492   0.001563 -16.419500  -0.002851   0.003965 -28.419900  -2.060670   3.803330 -36.014700  -0.005049   0.005863 -23.985800  -0.005252   0.001660 -27.876600  -2.024480   3.823100 -31.640600  -0.005773   0.004262 -21.072600  -0.004579   0.001142 -28.402700  -2.058880   3.806230 -42.707000  -0.005774   0.008752 -28.442800  -0.005692  -0.000000   7.908460  -3.005910  11.631600  53.168000 -14.337600  56.624600 -34.089300 -15.014100  30.722400  15.570400 -37.062900  14.987800 -41.145900  48.296100  84.973000  46.510000   0.003514  -0.003635  21.036600   0.000794  -0.001189   5.389380   1.782560  18.255800   4.643510  -0.000457   0.005595   3.250440  -0.000062   0.001368  89.000000   0.003095  -0.000000 110.000000  -0.001033   0.004400  80.000000  -0.000872   0.000621  88.996100  -4.998040  -0.088432  94.964800   0.002882  -0.001471  71.223600  -0.001042  -0.000487  88.984400 -10.004900  -0.177099 110.000000  -0.006956  -0.005649  79.999900  -0.000931  -0.002169   2.926020  24.129800   9.753540   0.872879   0.170207   4.707400  -4.662610  -3.842690  -5.807250   0.000000   0.000000   0.000000   3.938770  18.542900   0.777508  -2.367050  12.316800 -12.778700   3.226840  -9.553850   0.845740  -0.000000   0.000000   0.000000
  2.606740  89.113300   3.992560  -3.610780 -20.505400   1.351160  -0.568676  13.042600   5.673820  -2.585920  25.957800  11.957900   2.154790  -1.863490   0.080222   3.555440  -3.761620 -13.656700  -6.770690 -10.567000  -1.746590 -69.239000  23.086700  -8.862390   0.356660  -5.036100 -17.038700  12.750600  -6.869870   2.727760  35.600200  25.019000 -55.527300 -32.038800   0.000000   0.000000 -11.019400   0.002884  -0.000000 -28.508200   4.332120  -7.926760 -23.566900   0.002690   0.001566 -16.496800  -0.002888   0.004248 -28.437800  -2.005320   3.698160 -36.180900  -0.005049   0.005863 -24.096500  -0.005252   0.001660 -27.931000  -1.971580   3.716460 -31.945200  -0.005773   0.004262 -21.275500  -0.004579   0.001142 -28.563900  -2.011810   3.696010 -42.942400  -0.005774   0.008752 -28.599600  -0.005691   0.000000   7.816710  -3.206820  11.594300  49.985100 -13.282200  55.974800 -33.707700 -16.770800  28.656400  15.220000 -37.198700  14.892600 -40.965800  48.017200  84.724500  46.352500   0.003861  -0.003923  20.866800   0.000625  -0.001176   5.299580   1.750120  18.245700   4.566040  -0.000449   0.005708   3.196230  -0.000025   0.001415  89.000000   0.003224  -0.000000 110.000000  -0.001224   0.004058  80.000000  -0.001023   0.000747  88.996100  -4.997710  -0.088696  95.028900   0.002879  -0.001595  71.271700  -0.001137  -0.000811  88.984400 -10.004500  -0.177321 110.000000  -0.007078  -0.005629  79.999900  -0.001079  -0.001783   3.029880  24.133500   9.675950   0.746689   0.129420   4.399750  -4.745730  -3.787670  -6.194480  -0.000000   0.000000  -0.000000   3.888230  18.633700   0.773785  -2.233690  12.356800 -13.237200   3.239150  -9.608340   0.536334   0.000000   0.000000   0.000000
  2.787550  89.075000   4.043180  -3.388100 -20.509700   2.045100  -0.556756  13.041500   5.602590  -2.561390  25.958000  11.815000   2.180530  -1.801610   0.080056   3.592570  -3.637000 -13.484900  -6.687770 -10.587200  -1.628680 -69.122800  23.323700  -8.497030   0.095758  -5.820130 -16.828600  12.331800  -7.107240   2.730150  35.749500  25.406200 -56.368200 -32.044700   0.000000   0.000000 -11.022300   0.002850  -0.000000 -28.534100   4.462840  -8.148020 -23.604100   0.002887   0.001569 -16.522900  -0.002922   0.004531 -28.453000  -1.897390   3.496680 -36.205000  -0.005048   0.005864 -24.112500  -0.005253   0.001661 -27.958400  -1.867180   3.512890 -32.065100  -0.005774   0.004263 -21.355400  -0.004579   0.001143 -28.622900  -1.909990   3.490530 -43.018600  -0.005774   0.008751 -28.650400  -0.005691  -0.000000   7.740770  -3.336590  11.579400  46.211400 -12.134800  55.385800 -33.380700 -19.267900  25.758600  14.719400 -37.369000  14.725500 -40.789400  47.737300  84.481100  46.180400   0.004200  -0.004210  20.681500   0.000413  -0.001147   5.264050   1.740500  18.244200   4.535590  -0.000431   0.005823   3.174940   0.000000   0.001470  89.000000   0.003349   0.000000 110.000000  -0.001416   0.003700  80.000000  -0.001177   0.000873  88.996100  -4.997370  -0.088967  95.102600   0.002857  -0.001725  71.327000  -0.001236  -0.001115  88.984400 -10.004000  -0.177548 110.000000  -0.007198  -0.005605  79.999900  -0.001232  -0.001383   3.093870  24.137500   9.593630   0.646070   0.088588   4.148560  -4.825870  -3.726840  -6.521350   0.000000   0.000000   0.000000   3.787310  18.712500   0.745170  -2.125300  12.397200 -13.595100   3.265490  -9.630810   0.295505   0.000000   0.000000   0.000000
